<svg width="150" height="150" viewBox="0 0 150 150" fill="none" xmlns="http://www.w3.org/2000/svg">
<g clip-path="url(#clip0)">
<path d="M148.69 56.0476C133.42 48.676 120.783 38.6718 109.199 26.5614C107.883 25.245 106.304 25.5083 105.25 26.8246C104.724 26.5614 104.46 26.2981 104.197 26.2981C101.038 26.2981 100.775 31.0369 100.775 33.1431C100.512 37.882 100.248 42.3575 100.248 47.0964C72.8681 46.8331 45.2243 47.0964 17.8443 42.8841C16.5279 42.6208 14.9483 43.1473 14.4218 44.4637C14.1585 44.4637 13.632 44.4637 13.3687 44.727C10.9993 46.5699 8.89311 48.676 6.78695 50.7822C4.6808 52.6251 3.10118 54.9945 0.995022 56.5741C-0.584596 57.8904 -0.0580565 59.4701 0.995022 60.2599C0.731752 70.2641 0.205213 80.0051 1.52156 90.0093C1.78483 92.9049 5.99714 93.4319 6.78695 91.3257H7.05022C32.8506 93.6951 59.7041 93.9584 85.5046 92.3788C81.0294 101.067 84.4519 110.808 86.0315 120.549C86.2944 122.128 87.3479 122.655 88.401 122.391C88.401 123.971 89.9806 125.024 91.2965 123.708C107.356 108.175 126.311 98.434 144.214 85.797C146.057 84.4803 145.267 81.3215 142.897 81.3215C145.793 75.003 147.373 68.158 149.742 61.5762C150.006 60.7864 150.006 59.9966 149.48 59.4701C150.27 58.6803 150.27 56.8374 148.69 56.0476ZM101.302 52.6251C102.618 52.6251 103.408 51.8352 103.934 50.7822C104.724 50.5189 105.514 49.7291 105.514 48.4127C105.514 44.2004 106.04 39.9881 106.567 35.7758C106.567 34.7227 106.83 33.4064 107.094 32.3533C117.098 43.4106 129.208 52.3618 142.635 59.2068C136.316 65.7885 129.471 71.3172 122.1 76.5822C116.571 80.5316 110.253 83.9541 104.987 88.1665C104.987 87.9032 104.987 87.6399 104.987 87.3767C104.987 82.9011 105.251 78.4255 104.725 73.9499C106.041 72.3703 104.987 69.4743 102.092 70.0009C74.7114 73.6866 48.1211 68.9478 20.4778 70.7907C19.9513 63.4191 19.688 56.0476 19.688 48.676C46.8044 52.8883 74.1848 52.8883 101.302 52.6251ZM91.0341 118.706C89.4545 109.491 86.032 99.2238 89.7173 90.2722C89.9806 89.7457 89.7173 89.4824 89.4545 89.2195C89.1912 88.4297 88.4014 87.6399 87.0846 87.6399C60.7577 86.0599 33.3776 86.3231 7.05065 88.6926H6.78738C5.73431 79.4781 4.9445 70.0004 4.68123 60.786C4.9445 60.5227 5.20777 59.9962 5.47104 59.4696C6.26084 57.1002 8.367 54.7308 9.94662 52.8879C11.263 51.3083 12.8426 49.7287 14.1589 47.8858C14.1589 56.0471 14.9487 63.9452 16.2651 72.1066C16.5284 73.1597 17.5814 73.6862 18.6345 73.6862C18.8978 74.2127 19.1611 74.476 19.9509 74.476C44.9615 76.8454 76.0277 84.7435 100.775 76.3189C100.248 80.0047 99.7216 83.4272 99.195 87.113C98.9318 89.2191 97.8787 92.3783 98.4052 95.011C97.8787 96.3274 98.6685 97.9066 100.248 97.9066C101.301 98.4335 102.618 98.1698 103.407 97.38L103.671 97.1168C103.933 97.1168 104.197 97.1168 104.46 97.1168C105.513 97.1168 106.04 96.327 105.777 95.5372C118.677 89.482 132.104 79.2149 142.371 68.6836C141.055 73.6858 140.002 78.6879 138.949 83.69C121.047 90.5359 103.671 104.752 91.0341 118.706Z" fill="#eaeaea"/>
</g>
<defs>
<clipPath id="clip0">
<rect width="150" height="150" fill="white"/>
</clipPath>
</defs>
</svg>
