<svg width="444" height="79" viewBox="0 0 444 79" fill="none" xmlns="http://www.w3.org/2000/svg">
<path d="M18.027 70.237L12.4442 74.4599L15.6092 78.6441L20.5135 76.7805L18.027 70.237ZM10.308 56.21L3.74204 58.6366L3.74637 58.6483L3.75074 58.66L10.308 56.21ZM10.225 25.002L16.7793 27.4599L16.7839 27.4477L16.7884 27.4356L10.225 25.002ZM18.027 10.394L20.4349 3.82116L15.3837 1.97075L12.2955 6.37534L18.027 10.394ZM26.41 13.465L32.067 17.5879L37.5348 10.0855L28.8179 6.89216L26.41 13.465ZM20.102 26.247L13.4896 23.9501L13.4825 23.9706L13.4755 23.9911L20.102 26.247ZM20.102 54.716L13.4544 56.909L20.102 54.716ZM26.327 67.083L28.8135 73.6265L37.9502 70.1545L31.7215 62.6221L26.327 67.083ZM23.6098 66.0141C20.7513 62.2351 18.5077 58.156 16.8653 53.76L3.75074 58.66C5.87096 64.3347 8.7734 69.6069 12.4442 74.4599L23.6098 66.0141ZM16.874 53.7834C15.2824 49.477 14.486 45.0148 14.486 40.357H0.486C0.486 46.6552 1.57089 52.7617 3.74204 58.6366L16.874 53.7834ZM14.486 40.357C14.486 35.8017 15.2575 31.518 16.7793 27.4599L3.6707 22.5441C1.54051 28.2246 0.486 34.1777 0.486 40.357H14.486ZM16.7884 27.4356C18.383 23.135 20.6868 18.7936 23.7585 14.4127L12.2955 6.37534C8.61652 11.6224 5.71904 17.0197 3.66165 22.5684L16.7884 27.4356ZM15.6191 16.9668L24.0021 20.0378L28.8179 6.89216L20.4349 3.82116L15.6191 16.9668ZM20.753 9.3421C17.846 13.3308 15.4633 18.2682 13.4896 23.9501L26.7144 28.5439C28.3927 23.7124 30.2154 20.1285 32.067 17.5879L20.753 9.3421ZM13.4755 23.9911C11.5327 29.6979 10.446 35.1536 10.446 40.274H24.446C24.446 37.0944 25.1299 33.1988 26.7285 28.5028L13.4755 23.9911ZM10.446 40.274C10.446 45.478 11.5218 51.0507 13.4544 56.909L26.7496 52.523C25.1409 47.6466 24.446 43.5914 24.446 40.274H10.446ZM13.4544 56.909C15.3719 62.7214 17.789 67.7424 20.9325 71.5439L31.7215 62.6221C30.1064 60.6689 28.3735 57.4453 26.7496 52.523L13.4544 56.909ZM23.8405 60.5395L15.5405 63.6935L20.5135 76.7805L28.8135 73.6265L23.8405 60.5395ZM45.096 27.741L38.9583 31.1068L38.9995 31.1819L39.0425 31.256L45.096 27.741ZM45.926 37.95L39.2852 35.7364L45.926 37.95ZM43.685 41.353L39.0175 36.1363L33.5029 41.0704L38.7353 46.3027L43.685 41.353ZM45.843 45.005L39.1526 47.0636L39.201 47.221L39.2568 47.376L45.843 45.005ZM45.096 55.048L38.9508 51.696L38.9323 51.7299L38.9142 51.7639L45.096 55.048ZM44.432 61.439L39.229 66.1217L39.4754 66.3956L39.7493 66.6421L44.432 61.439ZM50.325 62.186L57.2666 61.2836L56.4739 55.186H50.325V62.186ZM51.404 70.486V77.486H59.3729L58.3456 69.5836L51.404 70.486ZM37.626 67.581L32.6051 72.4585V72.4585L37.626 67.581ZM35.219 56.708L28.428 55.0103L28.3944 55.1447L28.3662 55.2803L35.219 56.708ZM36.464 52.89L42.9429 55.5404L43.0888 55.1837L43.1947 54.813L36.464 52.89ZM37.128 50.649L30.5358 48.2946L30.4834 48.4414L30.4376 48.5904L37.128 50.649ZM36.464 46.001L41.212 40.8574H41.212L36.464 46.001ZM30.322 45.005H23.322V52.005H30.322V45.005ZM30.322 37.867V30.867H23.322V37.867H30.322ZM36.464 36.871L41.212 42.0146L41.212 42.0146L36.464 36.871ZM37.128 32.14L30.3644 33.9436L30.4195 34.1505L30.4872 34.3536L37.128 32.14ZM36.298 29.484L29.691 31.7965L29.694 31.8051L29.6971 31.8137L36.298 29.484ZM35.219 25.998L28.3931 27.5493L28.4263 27.6954L28.4657 27.8398L35.219 25.998ZM37.626 15.208L42.5758 20.1577L42.6116 20.1219L42.647 20.0855L37.626 15.208ZM51.404 12.303L58.3456 13.2054L59.3729 5.303H51.404V12.303ZM50.325 20.603V27.603H56.4739L57.2666 21.5054L50.325 20.603ZM44.432 21.433L39.4823 16.4832L39.4823 16.4832L44.432 21.433ZM36.685 22.844C36.685 25.8397 37.5977 28.6256 38.9583 31.1068L51.2337 24.3752C50.7131 23.4257 50.685 22.9469 50.685 22.844H36.685ZM39.0425 31.256C39.4536 31.9639 39.59 32.5572 39.59 33.136H53.59C53.59 29.9521 52.7305 26.9488 51.1495 24.2261L39.0425 31.256ZM39.59 33.136C39.59 34.5066 39.424 35.3201 39.2852 35.7364L52.5668 40.1636C53.3134 37.9239 53.59 35.5281 53.59 33.136H39.59ZM39.2852 35.7364C39.2309 35.8993 39.1684 36.0013 39.0175 36.1363L48.3526 46.5697C50.3043 44.8234 51.7358 42.6567 52.5668 40.1636L39.2852 35.7364ZM38.7353 46.3027C38.8688 46.4363 39.022 46.6392 39.1526 47.0636L52.5335 42.9464C51.7787 40.4935 50.4932 38.2617 48.6348 36.4033L38.7353 46.3027ZM39.2568 47.376C39.4396 47.8838 39.59 48.6139 39.59 49.653H53.59C53.59 47.2615 53.2425 44.8929 52.4292 42.634L39.2568 47.376ZM39.59 49.653C39.59 50.0631 39.4842 50.7181 38.9508 51.696L51.2413 58.4C52.6999 55.7259 53.59 52.7842 53.59 49.653H39.59ZM38.9142 51.7639C37.6124 54.2145 36.685 56.9816 36.685 59.945H50.685C50.685 59.9204 50.6983 59.4229 51.2778 58.3321L38.9142 51.7639ZM36.685 59.945C36.685 62.9645 38.3057 65.0959 39.229 66.1217L49.6351 56.7562C49.675 56.8006 49.8997 57.0538 50.1328 57.52C50.3721 57.9987 50.685 58.836 50.685 59.945H36.685ZM39.7493 66.6421C42.0327 68.6972 44.7684 69.186 46.839 69.186V55.186C46.8481 55.186 47.1088 55.1851 47.5236 55.3138C47.9641 55.4505 48.5483 55.7261 49.1148 56.2359L39.7493 66.6421ZM46.839 69.186H50.325V55.186H46.839V69.186ZM43.3834 63.0884L44.4624 71.3884L58.3456 69.5836L57.2666 61.2836L43.3834 63.0884ZM51.404 63.486H46.59V77.486H51.404V63.486ZM46.59 63.486C43.4214 63.486 42.6624 62.7194 42.647 62.7035L32.6051 72.4585C36.3523 76.316 41.5693 77.486 46.59 77.486V63.486ZM42.647 62.7035C42.2469 62.2917 41.804 61.6067 41.804 59.945H27.804C27.804 64.5913 29.2424 68.997 32.6051 72.4585L42.647 62.7035ZM41.804 59.945C41.804 59.7994 41.8399 59.2494 42.0719 58.1357L28.3662 55.2803C28.0449 56.8226 27.804 58.4306 27.804 59.945H41.804ZM42.01 58.4057C42.2642 57.3892 42.5766 56.4358 42.9429 55.5404L29.9852 50.2396C29.3555 51.7789 28.8379 53.3708 28.428 55.0103L42.01 58.4057ZM43.1947 54.813C43.404 54.0806 43.6119 53.3789 43.8185 52.7076L30.4376 48.5904C30.2014 49.3578 29.9667 50.1501 29.7334 50.967L43.1947 54.813ZM43.7202 53.0034C44.1483 51.8048 44.543 50.3022 44.543 48.657H30.543C30.543 48.3609 30.5788 48.179 30.5864 48.1423C30.5948 48.102 30.588 48.1487 30.5358 48.2946L43.7202 53.0034ZM44.543 48.657C44.543 45.8781 43.5614 43.0261 41.212 40.8574L31.7161 51.1446C31.3382 50.7958 31.0053 50.3326 30.788 49.7976C30.5786 49.2821 30.543 48.8658 30.543 48.657H44.543ZM41.212 40.8574C39.3478 39.1366 36.8939 38.005 34.057 38.005V52.005C33.5997 52.005 33.1106 51.9143 32.6463 51.7221C32.1935 51.5347 31.8867 51.3021 31.7161 51.1446L41.212 40.8574ZM34.057 38.005H30.322V52.005H34.057V38.005ZM37.322 45.005V37.867H23.322V45.005H37.322ZM30.322 44.867H34.057V30.867H30.322V44.867ZM34.057 44.867C36.8939 44.867 39.3478 43.7354 41.212 42.0146L31.7161 31.7274C31.8867 31.5699 32.1935 31.3373 32.6463 31.1499C33.1106 30.9577 33.5997 30.867 34.057 30.867V44.867ZM41.212 42.0146C43.5614 39.8459 44.543 36.9939 44.543 34.215H30.543C30.543 34.0062 30.5786 33.5899 30.788 33.0744C31.0053 32.5394 31.3382 32.0762 31.7161 31.7274L41.212 42.0146ZM44.543 34.215C44.543 32.6029 44.1619 31.1058 43.7688 29.9264L30.4872 34.3536C30.5198 34.4513 30.5419 34.5257 30.5562 34.5784C30.5707 34.6313 30.5756 34.6558 30.5752 34.6541C30.575 34.6528 30.5675 34.6158 30.5599 34.5471C30.5523 34.4788 30.543 34.366 30.543 34.215H44.543ZM43.8917 30.3364C43.6162 29.3034 43.2826 28.2412 42.899 27.1543L29.6971 31.8137C29.9774 32.6081 30.1972 33.3166 30.3644 33.9436L43.8917 30.3364ZM42.905 27.1715C42.5759 26.2312 42.2644 25.2268 41.9724 24.1562L28.4657 27.8398C28.8377 29.2038 29.2455 30.5235 29.691 31.7965L42.905 27.1715ZM42.045 24.4466C41.8488 23.5837 41.804 23.042 41.804 22.761H27.804C27.804 24.3614 28.0359 25.9776 28.3931 27.5493L42.045 24.4466ZM41.804 22.761C41.804 21.0936 42.2475 20.486 42.5758 20.1577L32.6763 10.2583C29.2419 13.6926 27.804 18.1204 27.804 22.761H41.804ZM42.647 20.0855C42.6624 20.0696 43.4214 19.303 46.59 19.303V5.303C41.5693 5.303 36.3523 6.47303 32.6051 10.3305L42.647 20.0855ZM46.59 19.303H51.404V5.303H46.59V19.303ZM44.4624 11.4006L43.3834 19.7006L57.2666 21.5054L58.3456 13.2054L44.4624 11.4006ZM50.325 13.603H46.839V27.603H50.325V13.603ZM46.839 13.603C44.5882 13.603 41.7496 14.216 39.4823 16.4832L49.3818 26.3828C48.2211 27.5434 46.9872 27.603 46.839 27.603V13.603ZM39.4823 16.4832C38.4199 17.5456 36.685 19.7027 36.685 22.844H50.685C50.685 25.0999 49.4482 26.3164 49.3818 26.3827L39.4823 16.4832ZM110.863 67L104.235 69.2537L105.849 74H110.863V67ZM102.479 42.349L109.107 40.0953L102.345 20.2126L95.8254 40.1758L102.479 42.349ZM94.4285 67V74H99.5062L101.083 69.1732L94.4285 67ZM85.2985 67L78.6807 69.2815L80.3075 74H85.2985V67ZM71.9355 28.239L71.0036 21.3013L62.5317 22.4393L65.3177 30.5205L71.9355 28.239ZM83.0575 26.745L89.7597 24.7248L88.038 19.0131L82.1256 19.8073L83.0575 26.745ZM90.1125 50.151L83.4103 52.1712L90.3161 75.082L96.8468 52.0614L90.1125 50.151ZM96.7525 26.745V19.745H91.4621L90.0182 24.8346L96.7525 26.745ZM108.621 26.745L115.324 24.7248L113.823 19.745H108.621V26.745ZM115.677 50.151L108.974 52.1712L115.922 75.2225L122.417 52.0393L115.677 50.151ZM122.234 26.745V19.745H116.925L115.493 24.8567L122.234 26.745ZM133.605 26.745L140.231 28.9995L143.38 19.745H133.605V26.745ZM119.91 67V74H124.922L126.536 69.2545L119.91 67ZM117.49 64.7463L109.107 40.0953L95.8522 44.6027L104.235 69.2537L117.49 64.7463ZM95.8254 40.1758L87.7744 64.8268L101.083 69.1732L109.134 44.5222L95.8254 40.1758ZM94.4285 60H85.2985V74H94.4285V60ZM91.9163 64.7185L78.5533 25.9575L65.3177 30.5205L78.6807 69.2815L91.9163 64.7185ZM72.8674 35.1767L83.9894 33.6827L82.1256 19.8073L71.0036 21.3013L72.8674 35.1767ZM76.3553 28.7652L83.4103 52.1712L96.8147 48.1308L89.7597 24.7248L76.3553 28.7652ZM96.8468 52.0614L103.487 28.6554L90.0182 24.8346L83.3782 48.2406L96.8468 52.0614ZM96.7525 33.745H108.621V19.745H96.7525V33.745ZM101.919 28.7652L108.974 52.1712L122.379 48.1308L115.324 24.7248L101.919 28.7652ZM122.417 52.0393L128.974 28.6333L115.493 24.8567L108.936 48.2627L122.417 52.0393ZM122.234 33.745H133.605V19.745H122.234V33.745ZM126.978 24.4905L113.283 64.7455L126.536 69.2545L140.231 28.9995L126.978 24.4905ZM119.91 60H110.863V74H119.91V60ZM143.555 62.269L138.711 67.3229L138.729 67.3396L138.746 67.3562L143.555 62.269ZM142.974 31.476L137.881 26.6739L137.862 26.6933L137.844 26.7128L142.974 31.476ZM171.692 31.974L165.95 35.9781L165.98 36.0213L166.011 36.0641L171.692 31.974ZM176.174 50.068V57.068H183.174V50.068H176.174ZM149.033 50.068V43.068H140.598L142.153 51.358L149.033 50.068ZM152.685 56.459L148.219 61.8492L148.265 61.8875L148.312 61.9251L152.685 56.459ZM165.218 58.119L167.276 64.8095L167.354 64.7855L167.431 64.7598L165.218 58.119ZM170.364 56.044L176.854 53.4205L174.11 46.6346L167.453 49.6777L170.364 56.044ZM173.518 63.846L177.77 69.4065L182.006 66.1669L180.008 61.2225L173.518 63.846ZM166.629 67L164.964 60.2009L164.947 60.2049L164.931 60.209L166.629 67ZM165.965 42.847V49.847H174.538L172.823 41.4473L165.965 42.847ZM162.977 36.871L158.229 42.0146L158.283 42.0649L158.339 42.114L162.977 36.871ZM152.021 36.954L156.671 42.1859L156.724 42.1386L156.777 42.0903L152.021 36.954ZM149.116 42.847L142.215 41.6724L140.824 49.847H149.116V42.847ZM160.072 60.996C154.412 60.996 150.794 59.4795 148.363 57.1818L138.746 67.3562C144.394 72.6945 151.787 74.996 160.072 74.996V60.996ZM148.398 57.2151C146.019 54.9348 144.579 51.7633 144.579 46.914H130.579C130.579 54.902 133.123 61.9672 138.711 67.3229L148.398 57.2151ZM144.579 46.914C144.579 41.8629 145.956 38.5521 148.103 36.2392L137.844 26.7128C132.799 32.1465 130.579 39.1278 130.579 46.914H144.579ZM148.067 36.2781C150.165 34.0533 153.14 32.666 157.831 32.666V18.666C150.016 18.666 143.087 21.1521 137.881 26.6739L148.067 36.2781ZM157.831 32.666C162.446 32.666 164.634 34.0907 165.95 35.9781L177.433 27.9699C172.884 21.4467 165.832 18.666 157.831 18.666V32.666ZM166.011 36.0641C168.044 38.8876 169.174 42.3407 169.174 46.748H183.174C183.174 39.7566 181.316 33.3604 177.373 27.8839L166.011 36.0641ZM169.174 46.748V50.068H183.174V46.748H169.174ZM176.174 43.068H149.033V57.068H176.174V43.068ZM142.153 51.358C142.928 55.4919 144.926 59.1209 148.219 61.8492L157.151 51.0688C156.57 50.5877 156.134 49.9561 155.913 48.778L142.153 51.358ZM148.312 61.9251C151.794 64.7109 156.017 65.783 160.321 65.783V51.783C158.317 51.783 157.449 51.3058 157.058 50.9929L148.312 61.9251ZM160.321 65.783C162.701 65.783 165.046 65.4956 167.276 64.8095L163.159 51.4285C162.512 51.6278 161.592 51.783 160.321 51.783V65.783ZM167.431 64.7598C169.228 64.1609 171.184 63.366 173.274 62.4103L167.453 49.6777C165.671 50.4927 164.195 51.0811 163.004 51.4782L167.431 64.7598ZM163.874 58.6675L167.028 66.4695L180.008 61.2225L176.854 53.4205L163.874 58.6675ZM169.266 58.2855C168.277 59.0418 166.902 59.7263 164.964 60.2009L168.294 73.7991C171.778 72.9457 174.996 71.5275 177.77 69.4065L169.266 58.2855ZM164.931 60.209C162.543 60.806 160.98 60.996 160.072 60.996V74.996C162.595 74.996 165.403 74.522 168.327 73.791L164.931 60.209ZM172.823 41.4473C172.096 37.8812 170.595 34.2644 167.615 31.628L158.339 42.114C158.236 42.023 158.727 42.3901 159.106 44.2467L172.823 41.4473ZM167.725 31.7274C164.856 29.0797 161.304 27.879 157.582 27.879V41.879C157.936 41.879 158.093 41.932 158.124 41.9437C158.144 41.951 158.154 41.9565 158.162 41.9611C158.169 41.9659 158.192 41.9802 158.229 42.0146L167.725 31.7274ZM157.582 27.879C153.772 27.879 150.171 29.1273 147.265 31.8177L156.777 42.0903C156.859 42.0141 156.965 41.879 157.582 41.879V27.879ZM147.37 31.7221C144.354 34.4034 142.839 38.0069 142.215 41.6724L156.017 44.0216C156.147 43.2566 156.321 42.7847 156.453 42.5183C156.576 42.269 156.662 42.1943 156.671 42.1859L147.37 31.7221ZM149.116 49.847H165.965V35.847H149.116V49.847ZM195.755 8.402H202.755V0.779697L195.161 1.42731L195.755 8.402ZM195.755 27.99H188.755V39.8468L199.137 34.119L195.755 27.99ZM200.818 25.915L198.976 19.1616L198.95 19.1689L198.923 19.1764L200.818 25.915ZM219.327 31.31L213.782 35.5816L219.327 31.31ZM219.161 61.854L213.688 57.4902L213.67 57.5129L213.652 57.5358L219.161 61.854ZM199.407 66.834L201.621 60.1932L199.407 66.834ZM193.182 63.597L197.409 58.0174L191.909 53.8508L187.664 59.2901L193.182 63.597ZM190.526 67V74H193.943L196.044 71.3069L190.526 67ZM185.048 67H178.048V74H185.048V67ZM185.048 9.31499L184.454 2.34031L178.048 2.88649V9.31499H185.048ZM210.695 54.799L216.796 58.2308L216.811 58.2041L216.826 58.1772L210.695 54.799ZM210.944 38.116L204.768 41.4101L210.944 38.116ZM199.241 35.045L201.364 41.7155L201.453 41.6872L201.541 41.6565L199.241 35.045ZM195.755 36.705L191.94 30.8359L188.755 32.9062V36.705H195.755ZM195.755 56.459H188.755V60.4223L192.154 62.4614L195.755 56.459ZM199.241 58.119L196.849 64.6976L196.895 64.7143L196.942 64.7305L199.241 58.119ZM188.755 8.402V27.99H202.755V8.402H188.755ZM199.137 34.119C200.269 33.4942 201.458 33.0066 202.714 32.6536L198.923 19.1764C196.637 19.8194 194.451 20.7151 192.374 21.861L199.137 34.119ZM202.66 32.6683C204.063 32.2858 205.059 32.168 205.715 32.168V18.168C203.494 18.168 201.226 18.5482 198.976 19.1616L202.66 32.6683ZM205.715 32.168C209.823 32.168 212.157 33.4729 213.782 35.5816L224.873 27.0384C220.189 20.9578 213.449 18.168 205.715 18.168V32.168ZM213.782 35.5816C215.832 38.244 217.058 41.7558 217.058 46.582H231.058C231.058 39.2349 229.13 32.5654 224.873 27.0384L213.782 35.5816ZM217.058 46.582C217.058 51.3524 215.809 54.8305 213.688 57.4902L224.635 66.2178C229.043 60.6881 231.058 53.9849 231.058 46.582H217.058ZM213.652 57.5358C211.923 59.7423 209.58 60.996 205.715 60.996V74.996C213.36 74.996 219.981 72.1551 224.671 66.1722L213.652 57.5358ZM205.715 60.996C204.774 60.996 203.435 60.7978 201.621 60.1932L197.194 73.4748C200.028 74.4195 202.893 74.996 205.715 74.996V60.996ZM201.621 60.1932C199.971 59.6433 198.586 58.9085 197.409 58.0174L188.955 69.1766C191.431 71.0522 194.196 72.4754 197.194 73.4748L201.621 60.1932ZM187.664 59.2901L185.008 62.6931L196.044 71.3069L198.701 67.9039L187.664 59.2901ZM190.526 60H185.048V74H190.526V60ZM192.048 67V9.31499H178.048V67H192.048ZM185.643 16.2897L196.35 15.3767L195.161 1.42731L184.454 2.34031L185.643 16.2897ZM202.893 65.783C208.483 65.783 213.775 63.6024 216.796 58.2308L204.594 51.3672C204.527 51.4861 204.486 51.5244 204.486 51.5249C204.483 51.5274 204.482 51.5287 204.479 51.5306C204.476 51.5327 204.465 51.5405 204.441 51.5528C204.356 51.5961 203.931 51.783 202.893 51.783V65.783ZM216.826 58.1772C218.821 54.5565 219.936 50.6653 219.936 46.582H205.936C205.936 48.032 205.557 49.6188 204.564 51.4208L216.826 58.1772ZM219.936 46.582C219.936 42.4163 219.051 38.4403 217.121 34.8219L204.768 41.4101C205.494 42.7717 205.936 44.4397 205.936 46.582H219.936ZM217.121 34.8219C214.082 29.1242 208.264 27.381 202.893 27.381V41.381C204.246 41.381 204.843 41.5969 204.99 41.6647C205.045 41.6903 205.004 41.6791 204.924 41.6052C204.842 41.5287 204.789 41.4504 204.768 41.4101L217.121 34.8219ZM202.893 27.381C200.835 27.381 198.838 27.7739 196.942 28.4335L201.541 41.6565C202.19 41.4307 202.628 41.381 202.893 41.381V27.381ZM197.119 28.3745C195.284 28.9582 193.555 29.7862 191.94 30.8359L199.57 42.5741C200.169 42.1851 200.764 41.9064 201.364 41.7155L197.119 28.3745ZM188.755 36.705V56.459H202.755V36.705H188.755ZM192.154 62.4614C193.646 63.3565 195.213 64.1025 196.849 64.6976L201.633 51.5404C200.835 51.2502 200.078 50.8895 199.357 50.4566L192.154 62.4614ZM196.942 64.7305C198.838 65.3901 200.835 65.783 202.893 65.783V51.783C202.628 51.783 202.19 51.7333 201.541 51.5075L196.942 64.7305ZM234.521 67H227.521V74H234.521V67ZM234.521 10.56V3.56H227.521V10.56H234.521ZM274.776 18.445L269.31 22.8179L274.776 18.445ZM274.278 59.281L269.027 54.6515V54.6515L274.278 59.281ZM245.228 19.69V12.69H238.228V19.69H245.228ZM245.228 57.953H238.228V64.953H245.228V57.953ZM265.812 53.471L260.676 48.7151L260.652 48.741L260.628 48.7671L265.812 53.471ZM266.476 24.67L260.741 28.6842L266.476 24.67ZM255.105 60H234.521V74H255.105V60ZM241.521 67V10.56H227.521V67H241.521ZM234.521 17.56H255.437V3.56H234.521V17.56ZM255.437 17.56C262.668 17.56 266.801 19.6825 269.31 22.8179L280.242 14.0721C274.34 6.69415 265.581 3.56 255.437 3.56V17.56ZM269.31 22.8179C272.334 26.5983 274.084 31.6291 274.084 38.448H288.084C288.084 29.1095 285.628 20.805 280.242 14.0721L269.31 22.8179ZM274.084 38.448C274.084 45.9677 272.155 51.1044 269.027 54.6515L279.528 63.9105C285.475 57.1656 288.084 48.4137 288.084 38.448H274.084ZM269.027 54.6515C266.086 57.9875 261.783 60 255.105 60V74C264.916 74 273.395 70.8665 279.528 63.9105L269.027 54.6515ZM255.52 12.69H245.228V26.69H255.52V12.69ZM238.228 19.69V57.953H252.228V19.69H238.228ZM245.228 64.953H254.939V50.953H245.228V64.953ZM254.939 64.953C261.178 64.953 266.785 62.8156 270.996 58.1749L260.628 48.7671C259.416 50.1024 257.774 50.953 254.939 50.953V64.953ZM270.948 58.2269C275.526 53.283 276.962 46.0605 276.962 38.448H262.962C262.962 44.8902 261.631 47.683 260.676 48.7151L270.948 58.2269ZM276.962 38.448C276.962 31.7607 275.651 25.5714 272.21 20.6558L260.741 28.6842C261.948 30.4086 262.962 33.4046 262.962 38.448H276.962ZM272.21 20.6558C268.271 15.0279 262.193 12.69 255.52 12.69V26.69C258.806 26.69 260.033 27.6721 260.741 28.6842L272.21 20.6558ZM295.37 62.269L290.527 67.3229L290.544 67.3396L290.562 67.3562L295.37 62.269ZM294.789 31.476L289.696 26.6739L289.678 26.6933L289.66 26.7128L294.789 31.476ZM323.507 31.974L317.766 35.9781L317.796 36.0213L317.826 36.0641L323.507 31.974ZM327.989 50.068V57.068H334.989V50.068H327.989ZM300.848 50.068V43.068H292.414L293.968 51.358L300.848 50.068ZM304.5 56.459L300.034 61.8492L300.08 61.8875L300.127 61.9251L304.5 56.459ZM317.033 58.119L319.092 64.8095L319.17 64.7855L319.247 64.7598L317.033 58.119ZM322.179 56.044L328.669 53.4205L325.926 46.6346L319.269 49.6777L322.179 56.044ZM325.333 63.846L329.585 69.4065L333.822 66.1669L331.823 61.2225L325.333 63.846ZM318.444 67L316.779 60.2009L316.763 60.2049L316.746 60.209L318.444 67ZM317.78 42.847V49.847H326.353L324.639 41.4473L317.78 42.847ZM314.792 36.871L310.044 42.0146L310.099 42.0649L310.154 42.114L314.792 36.871ZM303.836 36.954L308.487 42.1859L308.54 42.1386L308.592 42.0903L303.836 36.954ZM300.931 42.847L294.03 41.6724L292.639 49.847H300.931V42.847ZM311.887 60.996C306.228 60.996 302.609 59.4795 300.179 57.1818L290.562 67.3562C296.21 72.6945 303.603 74.996 311.887 74.996V60.996ZM300.214 57.2151C297.834 54.9348 296.394 51.7633 296.394 46.914H282.394C282.394 54.902 284.938 61.9672 290.527 67.3229L300.214 57.2151ZM296.394 46.914C296.394 41.8629 297.771 38.5521 299.919 36.2392L289.66 26.7128C284.614 32.1465 282.394 39.1278 282.394 46.914H296.394ZM299.882 36.2781C301.98 34.0533 304.955 32.666 309.646 32.666V18.666C301.832 18.666 294.902 21.1521 289.696 26.6739L299.882 36.2781ZM309.646 32.666C314.261 32.666 316.449 34.0907 317.766 35.9781L329.249 27.9699C324.7 21.4467 317.647 18.666 309.646 18.666V32.666ZM317.826 36.0641C319.859 38.8876 320.989 42.3407 320.989 46.748H334.989C334.989 39.7566 333.131 33.3604 329.188 27.8839L317.826 36.0641ZM320.989 46.748V50.068H334.989V46.748H320.989ZM327.989 43.068H300.848V57.068H327.989V43.068ZM293.968 51.358C294.743 55.4919 296.741 59.1209 300.034 61.8492L308.966 51.0688C308.386 50.5877 307.949 49.9561 307.728 48.778L293.968 51.358ZM300.127 61.9251C303.61 64.7109 307.832 65.783 312.136 65.783V51.783C310.132 51.783 309.264 51.3058 308.873 50.9929L300.127 61.9251ZM312.136 65.783C314.517 65.783 316.862 65.4956 319.092 64.8095L314.975 51.4285C314.327 51.6278 313.408 51.783 312.136 51.783V65.783ZM319.247 64.7598C321.044 64.1609 322.999 63.366 325.09 62.4103L319.269 49.6777C317.486 50.4927 316.011 51.0811 314.82 51.4782L319.247 64.7598ZM315.689 58.6675L318.843 66.4695L331.823 61.2225L328.669 53.4205L315.689 58.6675ZM321.081 58.2855C320.092 59.0418 318.717 59.7263 316.779 60.2009L320.109 73.7991C323.594 72.9457 326.812 71.5275 329.585 69.4065L321.081 58.2855ZM316.746 60.209C314.358 60.806 312.795 60.996 311.887 60.996V74.996C314.41 74.996 317.218 74.522 320.142 73.791L316.746 60.209ZM324.639 41.4473C323.911 37.8812 322.41 34.2644 319.43 31.628L310.154 42.114C310.051 42.023 310.543 42.3901 310.922 44.2467L324.639 41.4473ZM319.54 31.7274C316.672 29.0797 313.12 27.879 309.397 27.879V41.879C309.752 41.879 309.908 41.932 309.94 41.9437C309.96 41.951 309.97 41.9565 309.977 41.9611C309.985 41.9659 310.007 41.9802 310.044 42.0146L319.54 31.7274ZM309.397 27.879C305.588 27.879 301.986 29.1273 299.08 31.8177L308.592 42.0903C308.674 42.0141 308.78 41.879 309.397 41.879V27.879ZM299.186 31.7221C296.169 34.4034 294.654 38.0069 294.03 41.6724L307.832 44.0216C307.962 43.2566 308.137 42.7847 308.268 42.5183C308.391 42.269 308.477 42.1943 308.487 42.1859L299.186 31.7221ZM300.931 49.847H317.78V35.847H300.931V49.847ZM347.073 67L340.57 69.5901L342.326 74H347.073V67ZM331.635 28.239L330.703 21.3013L321.812 22.4955L325.132 30.8291L331.635 28.239ZM342.757 26.745L349.298 24.253L347.323 19.0687L341.825 19.8073L342.757 26.745ZM352.053 51.147L345.511 53.639L352.233 71.2844L358.638 53.5212L352.053 51.147ZM360.851 26.745V19.745H355.933L354.266 24.3708L360.851 26.745ZM372.222 26.745L378.735 29.31L382.502 19.745H372.222V26.745ZM356.369 67V74H361.135L362.882 69.565L356.369 67ZM353.576 64.4099L338.138 25.6489L325.132 30.8291L340.57 69.5901L353.576 64.4099ZM332.567 35.1767L343.689 33.6827L341.825 19.8073L330.703 21.3013L332.567 35.1767ZM336.215 29.237L345.511 53.639L358.594 48.655L349.298 24.253L336.215 29.237ZM358.638 53.5212L367.436 29.1192L354.266 24.3708L345.468 48.7728L358.638 53.5212ZM360.851 33.745H372.222V19.745H360.851V33.745ZM365.709 24.18L349.856 64.435L362.882 69.565L378.735 29.31L365.709 24.18ZM356.369 60H347.073V74H356.369V60ZM398.809 55.048L404.947 51.6822L398.809 55.048ZM398.062 44.839L391.395 42.7056L398.062 44.839ZM400.303 41.436L404.812 46.7904L410.645 41.8784L405.253 36.4862L400.303 41.436ZM398.062 37.867L391.371 39.9256L391.42 40.083L391.476 40.238L398.062 37.867ZM398.809 27.824L404.991 31.1081L405.012 31.069L405.032 31.0297L398.809 27.824ZM399.473 21.433L394.27 26.1158L394.393 26.2526L394.523 26.3827L399.473 21.433ZM393.663 20.603L386.705 21.3684L387.391 27.603H393.663V20.603ZM392.75 12.303V5.303H384.938L385.792 13.0684L392.75 12.303ZM406.362 15.208L401.412 20.1577L401.483 20.2284L401.556 20.2971L406.362 15.208ZM408.769 26.081L402.049 24.121L402.011 24.2514L401.978 24.3832L408.769 26.081ZM407.607 29.899L401.028 27.5068L400.944 27.7387L400.876 27.976L407.607 29.899ZM406.86 32.223L400.268 29.8686L400.192 30.0821L400.129 30.2999L406.86 32.223ZM407.524 36.871L402.38 41.619L402.57 41.8247L402.776 42.0146L407.524 36.871ZM413.666 37.867H420.666V30.867H413.666V37.867ZM413.666 44.922V51.922H420.666V44.922H413.666ZM407.524 45.918L402.776 40.7744L402.673 40.8693L402.574 40.9682L407.524 45.918ZM406.943 50.898L400.351 53.2523L400.456 53.5472L400.587 53.8314L406.943 50.898ZM407.773 53.305L400.982 55.0027L401.034 55.2096L401.098 55.4129L407.773 53.305ZM408.769 56.791L401.996 58.558L402.042 58.7371L402.098 58.9134L408.769 56.791ZM406.362 67.581L401.482 62.562L401.447 62.5964L401.412 62.6313L406.362 67.581ZM392.75 70.486L385.792 69.7206L384.938 77.486H392.75V70.486ZM393.663 62.186V55.186H387.391L386.705 61.4206L393.663 62.186ZM399.473 61.439L404.423 66.3887L404.553 66.2586L404.676 66.1217L399.473 61.439ZM407.22 59.945C407.22 56.9493 406.307 54.1634 404.947 51.6822L392.671 58.4138C393.192 59.3633 393.22 59.8421 393.22 59.945H407.22ZM404.947 51.6822C404.548 50.9558 404.398 50.31 404.398 49.653H390.398C390.398 52.7587 391.188 55.7096 392.671 58.4138L404.947 51.6822ZM404.398 49.653C404.398 48.3735 404.555 47.5152 404.729 46.9724L391.395 42.7056C390.683 44.9294 390.398 47.2805 390.398 49.653H404.398ZM404.729 46.9724C404.75 46.9069 404.768 46.8639 404.78 46.8388C404.792 46.8141 404.799 46.8027 404.8 46.8007C404.802 46.7988 404.801 46.8 404.799 46.8017C404.798 46.8033 404.801 46.7996 404.812 46.7904L395.794 36.0816C393.676 37.8651 392.216 40.1414 391.395 42.7056L404.729 46.9724ZM405.253 36.4862C405.017 36.2509 404.813 35.9533 404.648 35.496L391.476 40.238C392.307 42.5473 393.597 44.6291 395.353 46.3857L405.253 36.4862ZM404.752 35.8084C404.541 35.1223 404.398 34.2491 404.398 33.136H390.398C390.398 35.4535 390.697 37.7344 391.371 39.9256L404.752 35.8084ZM404.398 33.136C404.398 32.6546 404.515 32.0029 404.991 31.1081L392.627 24.5399C391.221 27.1865 390.398 30.0761 390.398 33.136H404.398ZM405.032 31.0297C406.302 28.5645 407.22 25.7915 407.22 22.844H393.22C393.22 22.8845 393.198 23.4315 392.586 24.6183L405.032 31.0297ZM407.22 22.844C407.22 19.7027 405.485 17.5456 404.423 16.4833L394.523 26.3827C394.457 26.3164 393.22 25.0999 393.22 22.844H407.22ZM404.676 16.7502C402.376 14.1947 399.343 13.603 397.149 13.603V27.603C397.057 27.603 395.574 27.5646 394.27 26.1158L404.676 16.7502ZM397.149 13.603H393.663V27.603H397.149V13.603ZM400.621 19.8376L399.708 11.5376L385.792 13.0684L386.705 21.3684L400.621 19.8376ZM392.75 19.303H397.398V5.303H392.75V19.303ZM397.398 19.303C400.458 19.303 401.3 20.0455 401.412 20.1577L411.312 10.2583C407.551 6.49712 402.417 5.303 397.398 5.303V19.303ZM401.556 20.2971C401.932 20.6523 402.35 21.2145 402.35 22.761H416.35C416.35 17.9995 414.776 13.5264 411.168 10.1189L401.556 20.2971ZM402.35 22.761C402.35 22.7084 402.354 22.7928 402.309 23.0483C402.266 23.2974 402.186 23.6506 402.049 24.121L415.489 28.041C415.97 26.391 416.35 24.5727 416.35 22.761H402.35ZM401.978 24.3832C401.701 25.4894 401.384 26.5295 401.028 27.5068L414.186 32.2912C414.715 30.8338 415.172 29.3286 415.56 27.7787L401.978 24.3832ZM400.876 27.976C400.697 28.6024 400.495 29.2332 400.268 29.8686L413.452 34.5773C413.779 33.6634 414.074 32.7449 414.338 31.822L400.876 27.976ZM400.129 30.2999C399.803 31.4426 399.528 32.789 399.528 34.215H413.528C413.528 34.3088 413.523 34.3759 413.52 34.413C413.517 34.4503 413.514 34.4643 413.516 34.4528C413.518 34.4415 413.523 34.4102 413.535 34.3573C413.548 34.3045 413.565 34.2345 413.591 34.146L400.129 30.2999ZM399.528 34.215C399.528 36.8839 400.43 39.5058 402.38 41.619L412.668 32.123C412.927 32.4044 413.168 32.7749 413.331 33.2096C413.491 33.636 413.528 33.9948 413.528 34.215H399.528ZM402.776 42.0146C404.64 43.7354 407.094 44.867 409.931 44.867V30.867C410.388 30.867 410.877 30.9577 411.342 31.1499C411.795 31.3373 412.101 31.5699 412.272 31.7274L402.776 42.0146ZM409.931 44.867H413.666V30.867H409.931V44.867ZM406.666 37.867V44.922H420.666V37.867H406.666ZM413.666 37.922H409.931V51.922H413.666V37.922ZM409.931 37.922C407.094 37.922 404.64 39.0536 402.776 40.7744L412.272 51.0616C412.101 51.2191 411.795 51.4517 411.342 51.6391C410.877 51.8313 410.388 51.922 409.931 51.922V37.922ZM402.574 40.9682C400.3 43.2421 399.528 46.1056 399.528 48.657H413.528C413.528 48.7361 413.517 49.0489 413.355 49.493C413.184 49.9636 412.89 50.4512 412.474 50.8678L402.574 40.9682ZM399.528 48.657C399.528 50.2849 399.842 51.829 400.351 53.2523L413.535 48.5436C413.512 48.4793 413.511 48.4598 413.515 48.4821C413.519 48.5056 413.528 48.5659 413.528 48.657H399.528ZM400.587 53.8314C400.711 54.0989 400.851 54.4795 400.982 55.0027L414.564 51.6073C414.252 50.3598 413.839 49.1358 413.299 47.9646L400.587 53.8314ZM401.098 55.4129C401.388 56.3325 401.688 57.3787 401.996 58.558L415.542 55.024C415.186 53.658 414.822 52.3802 414.448 51.1971L401.098 55.4129ZM402.098 58.9134C402.22 59.2942 402.286 59.5731 402.321 59.7606C402.356 59.9508 402.35 60.0044 402.35 59.945H416.35C416.35 58.0978 415.957 56.296 415.439 54.6686L402.098 58.9134ZM402.35 59.945C402.35 61.4879 401.931 62.1263 401.482 62.562L411.242 72.6C414.777 69.1624 416.35 64.7101 416.35 59.945H402.35ZM401.412 62.6313C401.3 62.7435 400.458 63.486 397.398 63.486V77.486C402.417 77.486 407.551 76.2919 411.312 72.5307L401.412 62.6313ZM397.398 63.486H392.75V77.486H397.398V63.486ZM399.708 71.2514L400.621 62.9514L386.705 61.4206L385.792 69.7206L399.708 71.2514ZM393.663 69.186H397.149V55.186H393.663V69.186ZM397.149 69.186C399.151 69.186 402.086 68.725 404.423 66.3887L394.523 56.4893C395.175 55.8378 395.87 55.4978 396.376 55.3351C396.849 55.183 397.148 55.186 397.149 55.186V69.186ZM404.676 66.1217C405.599 65.0959 407.22 62.9645 407.22 59.945H393.22C393.22 58.836 393.533 57.9987 393.772 57.52C394.005 57.0538 394.23 56.8006 394.27 56.7562L404.676 66.1217ZM426.036 10.394L431.653 6.21708L428.467 1.93233L423.493 3.87241L426.036 10.394ZM433.672 24.504L427.106 26.9305L427.118 26.9618L427.13 26.993L433.672 24.504ZM433.755 55.712L440.285 58.2348L440.29 58.2224L440.294 58.2101L433.755 55.712ZM425.953 70.237L423.524 76.802L428.627 78.69L431.716 74.2111L425.953 70.237ZM417.653 67.166L411.996 63.0431L406.547 70.5204L415.224 73.731L417.653 67.166ZM423.795 54.467L417.161 52.2325L417.154 52.2535L417.147 52.2746L423.795 54.467ZM423.878 25.998L417.204 28.1092L417.207 28.1191L417.21 28.1289L423.878 25.998ZM417.736 13.631L415.193 7.10942L406.079 10.664L412.385 18.1432L417.736 13.631ZM420.419 14.5709C423.227 18.3468 425.454 22.4598 427.106 26.9305L440.238 22.0774C438.128 16.3668 435.264 11.0732 431.653 6.21708L420.419 14.5709ZM427.13 26.993C428.762 31.284 429.577 35.7246 429.577 40.357H443.577C443.577 34.0334 442.456 27.9053 440.215 22.015L427.13 26.993ZM429.577 40.357C429.577 44.8218 428.79 49.0931 427.216 53.2139L440.294 58.2101C442.483 52.4816 443.577 46.5162 443.577 40.357H429.577ZM427.226 53.1892C425.564 57.4893 423.236 61.8476 420.191 66.2629L431.716 74.2111C435.311 68.9984 438.184 63.6734 440.285 58.2348L427.226 53.1892ZM428.382 63.672L420.082 60.601L415.224 73.731L423.524 76.802L428.382 63.672ZM423.31 71.2889C426.24 67.2689 428.575 62.3232 430.443 56.6594L417.147 52.2746C415.585 57.0134 413.825 60.5337 411.996 63.0431L423.31 71.2889ZM430.429 56.7015C432.366 50.9516 433.451 45.4739 433.451 40.357H419.451C419.451 43.5401 418.766 47.469 417.161 52.2325L430.429 56.7015ZM433.451 40.357C433.451 35.2301 432.412 29.7048 430.546 23.8671L417.21 28.1289C418.775 33.0259 419.451 37.0732 419.451 40.357H433.451ZM430.552 23.8868C428.693 18.0108 426.295 12.9223 423.088 9.11882L412.385 18.1432C413.936 19.9837 415.632 23.1399 417.204 28.1092L430.552 23.8868ZM420.28 20.1526L428.58 16.9156L423.493 3.87241L415.193 7.10942L420.28 20.1526Z" fill="white"/>
</svg>
