<svg width="109" height="75" viewBox="0 0 109 75" fill="none" xmlns="http://www.w3.org/2000/svg">
<circle cx="3.5" cy="3.5" r="3.5" fill="white"/>
<circle cx="3.5" cy="20.5" r="3.5" fill="white"/>
<circle cx="3.5" cy="37.5" r="3.5" fill="white"/>
<circle cx="3.5" cy="54.5" r="3.5" fill="white"/>
<circle cx="3.5" cy="71.5" r="3.5" fill="white"/>
<circle cx="20.5" cy="3.5" r="3.5" fill="white"/>
<circle cx="20.5" cy="20.5" r="3.5" fill="white"/>
<circle cx="20.5" cy="37.5" r="3.5" fill="white"/>
<circle cx="20.5" cy="54.5" r="3.5" fill="white"/>
<circle cx="20.5" cy="71.5" r="3.5" fill="white"/>
<circle cx="37.5" cy="3.5" r="3.5" fill="white"/>
<circle cx="37.5" cy="20.5" r="3.5" fill="white"/>
<circle cx="37.5" cy="37.5" r="3.5" fill="white"/>
<circle cx="37.5" cy="54.5" r="3.5" fill="white"/>
<circle cx="37.5" cy="71.5" r="3.5" fill="white"/>
<circle cx="54.5" cy="3.5" r="3.5" fill="white"/>
<circle cx="54.5" cy="20.5" r="3.5" fill="white"/>
<circle cx="54.5" cy="37.5" r="3.5" fill="white"/>
<circle cx="54.5" cy="54.5" r="3.5" fill="white"/>
<circle cx="54.5" cy="71.5" r="3.5" fill="white"/>
<circle cx="71.5" cy="3.5" r="3.5" fill="white"/>
<circle cx="71.5" cy="20.5" r="3.5" fill="white"/>
<circle cx="71.5" cy="37.5" r="3.5" fill="white"/>
<circle cx="71.5" cy="54.5" r="3.5" fill="white"/>
<circle cx="71.5" cy="71.5" r="3.5" fill="white"/>
<circle cx="88.5" cy="3.5" r="3.5" fill="white"/>
<circle cx="88.5" cy="20.5" r="3.5" fill="white"/>
<circle cx="88.5" cy="37.5" r="3.5" fill="white"/>
<circle cx="88.5" cy="54.5" r="3.5" fill="white"/>
<circle cx="88.5" cy="71.5" r="3.5" fill="white"/>
<circle cx="105.5" cy="3.5" r="3.5" fill="white"/>
<circle cx="105.5" cy="20.5" r="3.5" fill="white"/>
<circle cx="105.5" cy="37.5" r="3.5" fill="white"/>
<circle cx="105.5" cy="54.5" r="3.5" fill="white"/>
<circle cx="105.5" cy="71.5" r="3.5" fill="white"/>
</svg>
